<svg width="694" height="397" viewBox="0 0 694 397" fill="none" xmlns="http://www.w3.org/2000/svg">
<path d="M677.319 151.768C669.439 123.39 616.906 154.256 616.906 154.256L630.653 129.32C632.286 126.848 633.752 124.228 635.007 121.421C641.911 105.982 641.82 89.4671 634.971 75.0841C633.088 66.3521 627.385 53.872 611.652 40.195C581.884 14.317 482.072 -3.38395 453.179 0.546052C424.286 4.47705 479.445 16.632 479.445 16.632L475.073 16.5941C390.92 7.67205 306.249 6.52405 222.24 8.26305C201.174 8.69905 180.044 9.39005 159.418 12.9491C153.483 13.9731 147.101 15.5371 143.568 20.3241C127.885 41.5901 192.037 43.6681 202.1 43.2581C158.037 48.9851 109.077 50.7411 68.0979 67.7701C62.3799 70.1461 56.7159 72.9621 52.4079 77.3581C48.0999 81.7541 45.2929 87.991 46.2639 94.259C49.0829 112.456 74.1539 117.85 88.3699 121.891C88.3699 121.891 6.64995 176.23 16.2809 203.813C20.2619 215.215 26.1959 227.218 37.1929 239.034C30.9249 246.903 25.4059 255.16 21.1399 263.89C18.5299 269.23 15.1109 276.546 18.0319 282.693C32.9159 314.018 258.645 421.549 439.527 390.858C487.578 382.705 535.434 369.223 577.558 345.379C619.477 321.65 662.194 282.455 672.754 233.031C673.102 231.402 673.357 229.823 673.531 228.287C680.084 205.51 683.911 175.509 677.319 151.768Z" fill="#92E3A9"/>
<path opacity="0.8" d="M677.319 151.768C669.439 123.39 616.906 154.256 616.906 154.256L630.653 129.32C632.286 126.848 633.752 124.228 635.007 121.421C641.911 105.982 641.82 89.4671 634.971 75.0841C633.088 66.3521 627.385 53.872 611.652 40.195C581.884 14.317 482.072 -3.38395 453.179 0.546052C424.286 4.47705 479.445 16.632 479.445 16.632L475.073 16.5941C390.92 7.67205 306.249 6.52405 222.24 8.26305C201.174 8.69905 180.044 9.39005 159.418 12.9491C153.483 13.9731 147.101 15.5371 143.568 20.3241C127.885 41.5901 192.037 43.6681 202.1 43.2581C158.037 48.9851 109.077 50.7411 68.0979 67.7701C62.3799 70.1461 56.7159 72.9621 52.4079 77.3581C48.0999 81.7541 46.4139 87.918 46.2639 94.259C45.8669 111.035 72.8279 117.264 88.3699 121.891C88.3699 121.891 6.64995 176.23 16.2809 203.813C20.2619 215.215 26.1959 227.218 37.1929 239.034C30.9249 246.903 25.4059 255.16 21.1399 263.89C18.5299 269.23 15.1109 276.546 18.0319 282.693C32.9159 314.018 258.645 421.549 439.527 390.858C487.578 382.705 535.434 369.223 577.558 345.379C619.477 321.65 662.194 282.455 672.754 233.031C673.102 231.402 673.357 229.823 673.531 228.287C680.084 205.51 683.911 175.509 677.319 151.768Z" fill="white"/>
<path d="M531.093 120.76C531.093 120.76 532.113 117.699 537.215 116.678C542.317 115.658 548.44 121.27 548.44 121.27C548.44 121.27 552.522 113.107 556.603 112.596C560.685 112.086 565.277 115.657 565.277 115.657" stroke="#263238" stroke-miterlimit="10"/>
<path d="M517.828 140.148C517.828 140.148 518.848 137.087 523.95 136.066C529.052 135.046 535.175 140.658 535.175 140.658C535.175 140.658 539.257 132.495 543.338 131.984C547.42 131.474 552.012 135.045 552.012 135.045" stroke="#263238" stroke-miterlimit="10"/>
<path d="M566.298 140.27C566.298 140.27 567.075 137.94 570.958 137.163C574.842 136.386 579.502 140.658 579.502 140.658C579.502 140.658 582.609 134.444 585.716 134.056C588.823 133.668 592.318 136.386 592.318 136.386" stroke="#263238" stroke-miterlimit="10"/>
<path d="M622.992 160.812C622.992 160.812 623.501 159.284 626.048 158.774C628.595 158.265 631.651 161.066 631.651 161.066C631.651 161.066 633.689 156.991 635.726 156.736C637.763 156.481 640.056 158.264 640.056 158.264" stroke="#263238" stroke-miterlimit="10"/>
<path d="M351.273 115.353C346.001 91.6661 318.698 74.0121 294.899 77.3951C288.968 78.2381 283.197 80.4571 278.741 84.5571C272.664 90.1481 274.106 96.495 271.097 103.423C270.262 105.346 268.634 107.054 266.564 107.409C260.645 108.424 255.877 102.524 249.884 102.48C245.403 102.447 239.675 104.923 237.175 108.792C234.848 112.395 236.47 118.683 232.281 121.075C227.596 123.75 221.899 118.661 216.835 120.503C210.542 122.791 213.403 127.368 211.114 130.228C208.826 133.088 204.249 131.944 197.956 131.372C191.663 130.8 186.515 138.237 186.515 138.237H385.026C385.026 138.237 386.742 135.377 379.305 123.935C371.868 112.493 361.571 120.503 356.994 120.503C352.421 120.502 351.275 115.362 351.273 115.353Z" stroke="#263238" stroke-miterlimit="10"/>
<path d="M406.557 77.309C404.442 67.806 393.488 60.724 383.94 62.081C381.56 62.419 379.245 63.3101 377.457 64.9541C375.019 67.1971 375.597 69.7431 374.39 72.5231C374.055 73.2941 373.402 73.979 372.571 74.122C370.197 74.529 368.283 72.1621 365.879 72.1451C364.081 72.1321 361.783 73.125 360.78 74.677C359.846 76.122 360.497 78.6451 358.817 79.6051C356.938 80.6781 354.652 78.637 352.62 79.375C350.095 80.293 351.243 82.129 350.325 83.277C349.407 84.425 347.571 83.966 345.046 83.736C342.521 83.507 340.456 86.49 340.456 86.49H420.096C420.096 86.49 420.784 85.342 417.801 80.752C414.817 76.162 410.686 79.375 408.85 79.375C407.018 79.375 406.558 77.313 406.557 77.309Z" stroke="#263238" stroke-miterlimit="10"/>
<path d="M576.459 193.766C574.344 184.263 563.39 177.181 553.842 178.538C551.462 178.876 549.147 179.767 547.359 181.412C544.921 183.655 545.499 186.201 544.292 188.981C543.957 189.752 543.304 190.437 542.474 190.58C540.1 190.987 538.186 188.62 535.782 188.602C533.984 188.589 531.686 189.582 530.683 191.134C529.749 192.579 530.4 195.102 528.72 196.062C526.841 197.135 524.555 195.094 522.523 195.832C519.998 196.75 521.146 198.586 520.228 199.734C519.31 200.882 517.474 200.423 514.949 200.193C512.424 199.963 510.359 202.947 510.359 202.947H589.999C589.999 202.947 590.688 201.799 587.704 197.209C584.72 192.619 580.589 195.832 578.753 195.832C576.92 195.832 576.46 193.77 576.459 193.766Z" stroke="#263238" stroke-miterlimit="10"/>
<path d="M448.713 183.367C445.473 168.812 428.696 157.964 414.072 160.042C410.427 160.56 406.881 161.924 404.143 164.443C400.409 167.879 401.295 171.779 399.446 176.036C398.933 177.218 397.932 178.267 396.661 178.486C393.024 179.11 390.094 175.484 386.411 175.457C383.657 175.437 380.137 176.958 378.601 179.336C377.171 181.55 378.168 185.414 375.594 186.884C372.715 188.528 369.215 185.401 366.103 186.532C362.236 187.938 363.994 190.75 362.588 192.508C361.182 194.266 358.37 193.563 354.503 193.211C350.636 192.859 347.472 197.429 347.472 197.429H469.455C469.455 197.429 470.51 195.671 465.94 188.641C461.37 181.61 455.042 186.532 452.23 186.532C449.418 186.532 448.714 183.373 448.713 183.367Z" stroke="#263238" stroke-miterlimit="10"/>
<path d="M477.403 351.065C477.403 351.065 470.112 343.51 472.158 343.738C474.204 343.965 478.034 349.614 478.034 349.614C478.034 349.614 478.087 337.16 479.906 339.889C481.725 342.618 479.49 349.666 479.49 349.666C479.49 349.666 484.69 341.553 484.679 342.879C484.643 346.978 480.672 350.185 480.672 350.185C480.672 350.185 488.999 344.016 487.635 346.518C486.271 349.019 480.946 351.383 480.946 351.383C480.946 351.383 490.545 349.447 487.135 350.811C483.724 352.175 480.478 353.112 480.478 353.112H477.826C477.826 353.112 468.761 348.564 472.172 349.246C475.584 349.928 477.403 351.065 477.403 351.065Z" fill="#263238"/>
<path d="M573.692 327.426C573.692 327.426 568.018 321.547 569.61 321.724C571.203 321.901 574.183 326.297 574.183 326.297C574.183 326.297 574.224 316.605 575.64 318.729C577.056 320.853 575.316 326.338 575.316 326.338C575.316 326.338 579.363 320.024 579.354 321.056C579.326 324.246 576.236 326.741 576.236 326.741C576.236 326.741 582.717 321.94 581.655 323.887C580.593 325.834 576.449 327.673 576.449 327.673C576.449 327.673 583.92 326.166 581.265 327.228C578.611 328.29 576.085 329.019 576.085 329.019H574.021C574.021 329.019 566.967 325.48 569.621 326.011C572.276 326.541 573.692 327.426 573.692 327.426Z" fill="#263238"/>
<path d="M663.087 306.336C663.087 306.336 657.413 300.457 659.005 300.634C660.598 300.811 663.578 305.207 663.578 305.207C663.578 305.207 663.619 295.515 665.035 297.639C666.451 299.763 664.711 305.248 664.711 305.248C664.711 305.248 668.758 298.934 668.749 299.966C668.721 303.156 665.631 305.651 665.631 305.651C665.631 305.651 672.111 300.85 671.05 302.797C669.988 304.744 665.845 306.583 665.845 306.583C665.845 306.583 673.316 305.076 670.661 306.138C668.007 307.2 665.481 307.929 665.481 307.929H663.417C663.417 307.929 656.362 304.39 659.017 304.921C661.672 305.451 663.087 306.336 663.087 306.336Z" fill="#263238"/>
<path d="M549.156 354.507C549.156 354.507 542.378 347.484 544.28 347.695C546.183 347.906 549.743 353.158 549.743 353.158C549.743 353.158 549.792 341.581 551.483 344.118C553.174 346.655 551.096 353.207 551.096 353.207C551.096 353.207 555.931 345.665 555.92 346.897C555.887 350.708 552.195 353.688 552.195 353.688C552.195 353.688 559.936 347.954 558.668 350.279C557.4 352.604 552.45 354.802 552.45 354.802C552.45 354.802 561.374 353.002 558.203 354.27C555.032 355.538 552.015 356.409 552.015 356.409H549.549C549.549 356.409 541.122 352.181 544.293 352.815C547.465 353.45 549.156 354.507 549.156 354.507Z" fill="#92E3A9"/>
<path d="M415.027 324.04L355.06 256.809L341.927 267.316L276.185 168.335L218.953 181.087L201.839 149.117L185.204 148.241L153.684 86.0781L106.538 129.094L83.807 120.976L1 205.407" stroke="#263238" stroke-miterlimit="10"/>
<path d="M426.272 336.647L419.985 329.598" stroke="#263238" stroke-miterlimit="10"/>
<path d="M188.222 189.307L183.265 190.649" stroke="#263238" stroke-miterlimit="10"/>
<path d="M218.836 181.015L193.803 187.795" stroke="#263238" stroke-miterlimit="10"/>
<path d="M124.397 152.239L138.414 131.547L137.467 124.449L153.557 91.7971" stroke="#263238" stroke-miterlimit="10"/>
<path d="M118.539 160.886L122.055 155.695" stroke="#263238" stroke-miterlimit="10"/>
<path d="M96.788 173.127L74.057 203.949" stroke="#263238" stroke-miterlimit="10"/>
<path d="M84.9399 124.449L90.6189 137.226L103.396 147.636L101.976 166.092L98.8799 170.29" stroke="#263238" stroke-miterlimit="10"/>
<path d="M201.839 149.117L189.994 160.413L185.735 153.315" stroke="#263238" stroke-miterlimit="10"/>
<path d="M680.142 275.601L588.126 210.697L560.192 250.132L525.686 238.63L472.284 313.394L437.777 306L420.524 320.788" stroke="#263238" stroke-miterlimit="10"/>
<path d="M588.126 210.697L577.186 258.789L564.284 253.144" stroke="#263238" stroke-miterlimit="10"/>
<path d="M525.981 241.452L498.968 320.073L480.421 316.848" stroke="#263238" stroke-miterlimit="10"/>
<path d="M524.733 235.835C500.787 235.835 481.376 255.115 481.376 278.897C481.376 289.923 485.551 299.98 492.413 307.598C495.553 307.143 501.275 306.83 507.6 308.982C515.981 311.833 521.204 316.505 522.348 317.596H526.233C527.377 316.505 532.6 311.833 540.981 308.982C547.867 306.639 554.042 307.218 556.943 307.721C563.871 300.089 568.09 289.983 568.09 278.897C568.09 255.114 548.679 235.835 524.733 235.835Z" fill="#92E3A9"/>
<path d="M544.916 296.169C543.582 296.814 542.26 297.481 540.955 298.177C539.649 298.891 538.368 299.666 537.167 300.515C536.713 300.829 536.27 301.153 535.827 301.477L542.929 288.246L533.184 303.507C532.197 304.301 531.226 305.112 530.275 305.939C528.701 307.309 527.171 308.705 525.671 310.144L525.176 295.79L535.372 280.265L525.101 293.618L524.658 280.771L523.925 295.146L523.923 295.149L523.925 295.15L523.191 309.558C521.889 308.326 520.564 307.121 519.205 305.939C518.136 305.01 517.048 304.098 515.933 303.212L506.713 287.466L513.485 301.356C513.096 301.073 512.709 300.788 512.313 300.514C511.112 299.666 509.832 298.89 508.525 298.176C507.22 297.48 505.898 296.813 504.564 296.168C501.892 294.886 499.171 293.687 496.36 292.697C499.091 293.854 501.709 295.21 504.266 296.641C505.542 297.361 506.804 298.101 508.045 298.868C509.266 299.641 510.441 300.458 511.557 301.36C513.803 303.138 515.902 305.08 517.922 307.084C519.687 308.837 521.404 310.649 523.041 312.489L522.109 330.776H526.381L525.776 313.232C527.606 311.137 529.554 309.072 531.557 307.084C533.577 305.08 535.675 303.139 537.922 301.36C539.038 300.458 540.212 299.64 541.434 298.868C542.675 298.101 543.936 297.361 545.213 296.641C547.77 295.21 550.388 293.854 553.119 292.697C550.309 293.688 547.587 294.888 544.916 296.169Z" fill="#263238"/>
<path d="M191.842 294.923C191.842 307.296 184.904 308.23 176.345 308.23C167.786 308.23 160.848 307.296 160.848 294.923C160.848 282.55 167.786 256.687 176.345 256.687C184.904 256.686 191.842 282.55 191.842 294.923Z" fill="#92E3A9"/>
<path d="M181.585 300.536L179.021 300.713L185.698 296.212L180.93 298.622L181.585 296.739L179.405 299.393L176.848 300.686L176.645 291.801L177.999 288.513L176.612 290.362L176.494 285.21L180.741 279.548L176.465 283.926L176.206 272.587L175.977 279.844L173.253 276.806L175.933 281.239L175.57 292.734L173.199 291.183L171.038 287.353L171.904 290.337L167.663 287.564L175.52 294.34L174.33 332.071H177.565L176.881 302.156L177.629 301.652L181.585 300.536Z" fill="#263238"/>
<path d="M608.651 252.313C608.651 276.489 595.094 278.315 578.371 278.315C561.647 278.315 548.09 276.49 548.09 252.313C548.09 228.136 561.647 177.599 578.371 177.599C595.094 177.599 608.651 228.137 608.651 252.313Z" fill="#92E3A9"/>
<path opacity="0.31" d="M608.651 252.313C608.651 276.489 595.094 278.315 578.371 278.315C561.647 278.315 548.09 276.49 548.09 252.313C548.09 228.136 561.647 177.599 578.371 177.599C595.094 177.599 608.651 228.137 608.651 252.313Z" fill="white"/>
<path d="M588.609 263.282L583.6 263.627L596.646 254.833L587.329 259.542L588.609 255.863L584.349 261.049L579.353 263.574L578.956 246.213L581.602 239.788L578.892 243.401L578.662 233.335L586.96 222.271L578.605 230.825L578.098 208.669L577.651 222.85L572.328 216.913L577.565 225.574L576.857 248.036L572.222 245.006L568 237.521L569.693 243.353L561.405 237.933L576.758 251.175L574.433 324.902H580.754L579.419 266.447L580.879 265.462L588.609 263.282Z" fill="#263238"/>
<path d="M673.47 261.828C673.47 274.201 666.532 275.135 657.973 275.135C649.414 275.135 642.476 274.201 642.476 261.828C642.476 249.455 649.414 223.592 657.973 223.592C666.532 223.592 673.47 249.455 673.47 261.828Z" fill="#92E3A9"/>
<path opacity="0.5" d="M673.47 261.828C673.47 274.201 666.532 275.135 657.973 275.135C649.414 275.135 642.476 274.201 642.476 261.828C642.476 249.455 649.414 223.592 657.973 223.592C666.532 223.592 673.47 249.455 673.47 261.828Z" fill="white"/>
<path d="M663.213 267.442L660.65 267.619L667.326 263.118L662.558 265.528L663.213 263.645L661.033 266.299L658.476 267.591L658.273 258.707L659.627 255.419L658.24 257.268L658.122 252.116L662.369 246.454L658.093 250.832L657.834 239.493L657.605 246.75L654.881 243.711L657.561 248.144L657.199 259.64L654.827 258.089L652.666 254.258L653.532 257.243L649.291 254.469L657.148 261.246L655.958 298.977H659.193L658.509 269.062L659.257 268.558L663.213 267.442Z" fill="#263238"/>
<path d="M41.8 251.366C41.8 263.739 34.862 264.673 26.303 264.673C17.744 264.673 10.806 263.739 10.806 251.366C10.806 238.993 17.744 213.13 26.303 213.13C34.862 213.13 41.8 238.993 41.8 251.366Z" fill="#92E3A9"/>
<path opacity="0.5" d="M41.8 251.366C41.8 263.739 34.862 264.673 26.303 264.673C17.744 264.673 10.806 263.739 10.806 251.366C10.806 238.993 17.744 213.13 26.303 213.13C34.862 213.13 41.8 238.993 41.8 251.366Z" fill="white"/>
<path d="M31.543 256.98L28.98 257.156L35.656 252.656L30.888 255.066L31.543 253.183L29.363 255.837L26.806 257.129L26.603 248.244L27.957 244.956L26.57 246.805L26.452 241.654L30.699 235.991L26.423 240.369L26.164 229.03L25.935 236.288L23.211 233.249L25.891 237.682L25.529 249.177L23.157 247.627L20.996 243.796L21.862 246.78L17.621 244.007L25.478 250.784L24.288 288.515H27.523L26.84 258.599L27.587 258.096L31.543 256.98Z" fill="#263238"/>
<path d="M118.594 223.307C94.6489 223.307 75.2369 242.587 75.2369 266.369C75.2369 277.395 79.4119 287.452 86.2739 295.07C89.4139 294.615 95.1359 294.302 101.461 296.454C109.842 299.305 115.065 303.977 116.209 305.068H120.094C121.238 303.977 126.461 299.305 134.842 296.454C141.728 294.112 147.903 294.69 150.804 295.193C157.732 287.561 161.951 277.455 161.951 266.369C161.951 242.587 142.539 223.307 118.594 223.307Z" fill="#92E3A9"/>
<path opacity="0.33" d="M118.594 223.307C94.6489 223.307 75.2369 242.587 75.2369 266.369C75.2369 277.395 79.4119 287.452 86.2739 295.07C89.4139 294.615 95.1359 294.302 101.461 296.454C109.842 299.305 115.065 303.977 116.209 305.068H120.094C121.238 303.977 126.461 299.305 134.842 296.454C141.728 294.112 147.903 294.69 150.804 295.193C157.732 287.561 161.951 277.455 161.951 266.369C161.951 242.587 142.539 223.307 118.594 223.307Z" fill="white"/>
<path d="M138.776 283.642C137.442 284.287 136.12 284.954 134.815 285.65C133.509 286.364 132.228 287.139 131.027 287.988C130.573 288.302 130.13 288.626 129.687 288.95L136.789 275.719L127.044 290.98C126.057 291.774 125.087 292.585 124.135 293.412C122.561 294.782 121.031 296.178 119.531 297.617L119.036 283.263L129.232 267.738L118.961 281.091L118.518 268.244L117.786 282.619L117.784 282.622L117.786 282.623L117.052 297.031C115.75 295.799 114.425 294.594 113.066 293.412C111.997 292.483 110.909 291.571 109.794 290.685L100.574 274.939L107.346 288.829C106.957 288.546 106.571 288.261 106.173 287.987C104.972 287.139 103.692 286.363 102.385 285.649C101.08 284.953 99.7579 284.286 98.4249 283.641C95.7539 282.359 93.0319 281.16 90.2209 280.17C92.9519 281.327 95.5699 282.682 98.1269 284.114C99.4029 284.834 100.665 285.574 101.906 286.341C103.127 287.114 104.302 287.931 105.418 288.833C107.664 290.611 109.763 292.553 111.783 294.557C113.548 296.31 115.266 298.123 116.902 299.962L115.97 318.249H120.242L119.637 300.705C121.467 298.61 123.415 296.546 125.418 294.557C127.438 292.553 129.536 290.612 131.783 288.833C132.899 287.931 134.073 287.114 135.295 286.341C136.536 285.574 137.797 284.834 139.074 284.114C141.632 282.683 144.249 281.327 146.98 280.17C144.169 281.161 141.447 282.36 138.776 283.642Z" fill="#263238"/>
<path d="M238.971 351.813V312.137H187.329V286.735L231.624 181.771H269.411V287.365H285.785V312.137H269.411V351.813H238.971ZM212.94 287.365H238.971V215.15L212.94 287.365Z" fill="#263238"/>
<path d="M346.664 351.904C336.447 351.904 327.98 349.805 321.263 345.606C314.545 341.407 309.507 335.634 306.148 328.286C302.789 320.939 301.11 312.437 301.11 302.78V226.577C301.11 216.641 302.717 207.929 305.938 200.441C309.156 192.956 314.125 187.111 320.843 182.912C327.561 178.713 336.167 176.614 346.664 176.614C357.02 176.614 365.522 178.713 372.17 182.912C378.816 187.111 383.749 192.956 386.97 200.441C390.188 207.929 391.798 216.642 391.798 226.577V302.78C391.798 312.437 390.119 320.939 386.76 328.286C383.401 335.634 378.362 341.407 371.645 345.606C364.927 349.805 356.599 351.904 346.664 351.904ZM346.664 323.354C350.443 323.354 353.172 322.166 354.851 319.784C356.53 317.406 357.649 314.572 358.21 311.282C358.768 307.995 359.05 304.951 359.05 302.15V227.206C359.05 224.129 358.804 220.908 358.315 217.549C357.823 214.19 356.741 211.287 355.061 208.837C353.382 206.391 350.581 205.163 346.664 205.163C342.744 205.163 339.91 206.39 338.162 208.837C336.411 211.287 335.292 214.19 334.803 217.549C334.311 220.908 334.068 224.129 334.068 227.206V302.15C334.068 304.951 334.347 307.995 334.908 311.282C335.466 314.572 336.656 317.406 338.477 319.784C340.294 322.166 343.023 323.354 346.664 323.354Z" fill="#263238"/>
<path d="M461.073 351.813V312.137H409.431V286.735L453.726 181.771H491.512V287.365H507.886V312.137H491.512V351.813H461.073ZM435.042 287.365H461.073V215.15L435.042 287.365Z" fill="#263238"/>
<path d="M679.041 278.353C610.221 316.495 488.644 341.832 350.145 341.832C196.983 341.832 64.516 310.846 1.20697 265.823" stroke="#263238" stroke-miterlimit="10"/>
<path d="M693.546 269.609C690.599 271.548 687.522 273.46 684.319 275.342" stroke="#263238" stroke-miterlimit="10"/>
<path d="M651.504 259.817C651.504 285.097 637.328 287.006 619.84 287.006C602.352 287.006 588.176 285.097 588.176 259.817C588.176 234.536 602.352 181.691 619.84 181.691C637.328 181.691 651.504 234.537 651.504 259.817Z" fill="#92E3A9"/>
<path d="M630.546 271.288L625.309 271.649L638.951 262.452L629.208 267.377L630.546 263.53L626.092 268.952L620.868 271.593L620.453 253.439L623.219 246.721L620.386 250.499L620.145 239.973L628.822 228.403L620.085 237.348L619.556 214.18L619.088 229.009L613.522 222.8L618.998 231.858L618.257 255.346L613.411 252.177L608.996 244.35L610.767 250.448L602.1 244.781L618.154 258.627L615.723 335.722H622.333L620.936 274.597L622.463 273.567L630.546 271.288Z" fill="#263238"/>
<path d="M617.707 336.402C617.707 336.402 606.02 324.293 609.301 324.658C612.581 325.023 618.72 334.077 618.72 334.077C618.72 334.077 618.805 314.116 621.721 318.49C624.637 322.864 621.054 334.161 621.054 334.161C621.054 334.161 629.389 321.158 629.371 323.282C629.313 329.852 622.949 334.991 622.949 334.991C622.949 334.991 636.296 325.104 634.109 329.113C631.922 333.122 623.388 336.911 623.388 336.911C623.388 336.911 638.774 333.807 633.307 335.994C627.84 338.181 622.638 339.682 622.638 339.682H618.387C618.387 339.682 603.858 332.393 609.325 333.486C614.791 334.58 617.707 336.402 617.707 336.402Z" fill="#263238"/>
<path d="M57.859 321.368C57.859 321.368 47.751 310.895 50.588 311.21C53.425 311.525 58.735 319.357 58.735 319.357C58.735 319.357 58.808 302.092 61.33 305.875C63.852 309.658 60.753 319.429 60.753 319.429C60.753 319.429 67.962 308.182 67.946 310.019C67.896 315.702 62.391 320.147 62.391 320.147C62.391 320.147 73.935 311.595 72.044 315.063C70.153 318.531 62.771 321.808 62.771 321.808C62.771 321.808 76.079 319.123 71.35 321.015C66.621 322.906 62.122 324.205 62.122 324.205H58.445C58.445 324.205 45.878 317.9 50.607 318.846C55.337 319.792 57.859 321.368 57.859 321.368Z" fill="#263238"/>
<path d="M94.395 246.036C94.395 271.344 80.203 273.255 62.697 273.255C45.191 273.255 30.999 271.344 30.999 246.036C30.999 220.728 45.191 167.825 62.697 167.825C80.203 167.825 94.395 220.728 94.395 246.036Z" fill="#92E3A9"/>
<path d="M73.415 257.519L68.172 257.88L81.828 248.674L72.075 253.604L73.415 249.752L68.956 255.181L63.725 257.825L63.31 239.651L66.08 232.925L63.243 236.707L63.002 226.17L71.689 214.588L62.942 223.543L62.412 200.349L61.944 215.194L56.372 208.979L61.854 218.046L61.113 241.56L56.261 238.387L51.841 230.552L53.613 236.656L44.938 230.984L61.009 244.845L58.575 322.023H65.193L63.794 260.832L65.323 259.801L73.415 257.519Z" fill="#263238"/>
<path d="M168.523 347.679C168.523 347.679 158.415 337.206 161.252 337.521C164.089 337.836 169.399 345.668 169.399 345.668C169.399 345.668 169.473 328.403 171.994 332.186C174.516 335.969 171.417 345.74 171.417 345.74C171.417 345.74 178.626 334.493 178.61 336.33C178.56 342.013 173.055 346.458 173.055 346.458C173.055 346.458 184.599 337.906 182.708 341.374C180.817 344.842 173.435 348.119 173.435 348.119C173.435 348.119 186.743 345.435 182.014 347.326C177.285 349.217 172.786 350.516 172.786 350.516H169.109C169.109 350.516 156.543 344.211 161.271 345.157C166.001 346.102 168.523 347.679 168.523 347.679Z" fill="#263238"/>
<path d="M222.174 370.629C222.174 370.629 212.066 360.156 214.903 360.471C217.74 360.786 223.05 368.618 223.05 368.618C223.05 368.618 223.123 351.353 225.645 355.136C228.167 358.919 225.068 368.69 225.068 368.69C225.068 368.69 232.278 357.443 232.261 359.28C232.211 364.963 226.706 369.408 226.706 369.408C226.706 369.408 238.25 360.856 236.359 364.324C234.468 367.792 227.086 371.069 227.086 371.069C227.086 371.069 240.394 368.385 235.665 370.276C230.936 372.168 226.437 373.466 226.437 373.466H222.76C222.76 373.466 210.193 367.161 214.922 368.107C219.652 369.053 222.174 370.629 222.174 370.629Z" fill="#263238"/>
<path d="M366.077 355.219C366.077 355.219 358.786 347.665 360.832 347.892C362.878 348.119 366.708 353.768 366.708 353.768C366.708 353.768 366.761 341.315 368.58 344.043C370.399 346.772 368.164 353.82 368.164 353.82C368.164 353.82 373.365 345.707 373.353 347.033C373.317 351.132 369.346 354.339 369.346 354.339C369.346 354.339 377.673 348.171 376.309 350.672C374.945 353.173 369.62 355.537 369.62 355.537C369.62 355.537 379.219 353.601 375.808 354.965C372.397 356.329 369.152 357.266 369.152 357.266H366.5C366.5 357.266 357.435 352.718 360.846 353.4C364.258 354.082 366.077 355.219 366.077 355.219Z" fill="#263238"/>
<path d="M649.104 337.143C649.104 337.143 643.43 331.264 645.022 331.441C646.614 331.618 649.595 336.014 649.595 336.014C649.595 336.014 649.636 326.322 651.052 328.446C652.468 330.57 650.728 336.055 650.728 336.055C650.728 336.055 654.775 329.741 654.766 330.773C654.738 333.963 651.648 336.458 651.648 336.458C651.648 336.458 658.129 331.658 657.067 333.604C656.005 335.551 651.861 337.39 651.861 337.39C651.861 337.39 659.332 335.883 656.677 336.945C654.023 338.007 651.497 338.736 651.497 338.736H649.433C649.433 338.736 642.379 335.197 645.033 335.728C647.688 336.258 649.104 337.143 649.104 337.143Z" fill="#263238"/>
<path d="M267.036 355.259C267.036 355.259 256.928 344.786 259.765 345.101C262.602 345.416 267.912 353.248 267.912 353.248C267.912 353.248 267.985 335.983 270.507 339.766C273.029 343.549 269.93 353.32 269.93 353.32C269.93 353.32 277.14 342.073 277.123 343.91C277.073 349.593 271.568 354.038 271.568 354.038C271.568 354.038 283.112 345.486 281.221 348.954C279.33 352.422 271.948 355.699 271.948 355.699C271.948 355.699 285.256 353.014 280.527 354.906C275.798 356.797 271.299 358.096 271.299 358.096H267.622C267.622 358.096 255.056 351.791 259.784 352.737C264.515 353.683 267.036 355.259 267.036 355.259Z" fill="#92E3A9"/>
<path d="M194.095 348.301C194.095 348.301 187.317 341.278 189.219 341.489C191.121 341.7 194.682 346.952 194.682 346.952C194.682 346.952 194.731 335.375 196.422 337.912C198.113 340.449 196.035 347.001 196.035 347.001C196.035 347.001 200.869 339.459 200.859 340.691C200.826 344.502 197.134 347.482 197.134 347.482C197.134 347.482 204.875 341.748 203.607 344.073C202.339 346.398 197.389 348.596 197.389 348.596C197.389 348.596 206.313 346.796 203.142 348.064C199.971 349.332 196.954 350.203 196.954 350.203H194.488C194.488 350.203 186.061 345.975 189.232 346.609C192.404 347.244 194.095 348.301 194.095 348.301Z" fill="#92E3A9"/>
<path d="M109.397 376.042C109.397 376.042 102.619 369.019 104.521 369.23C106.424 369.441 109.984 374.693 109.984 374.693C109.984 374.693 110.033 363.116 111.724 365.652C113.415 368.189 111.337 374.741 111.337 374.741C111.337 374.741 116.171 367.199 116.161 368.431C116.128 372.242 112.436 375.222 112.436 375.222C112.436 375.222 120.177 369.488 118.909 371.813C117.641 374.138 112.691 376.336 112.691 376.336C112.691 376.336 121.615 374.536 118.444 375.804C115.273 377.072 112.256 377.943 112.256 377.943H109.79C109.79 377.943 101.363 373.715 104.534 374.349C107.706 374.985 109.397 376.042 109.397 376.042Z" fill="#92E3A9"/>
<path d="M336.164 377.402C336.164 377.402 329.386 370.379 331.288 370.59C333.19 370.801 336.751 376.053 336.751 376.053C336.751 376.053 336.8 364.476 338.491 367.013C340.182 369.55 338.104 376.102 338.104 376.102C338.104 376.102 342.938 368.56 342.928 369.792C342.895 373.603 339.203 376.583 339.203 376.583C339.203 376.583 346.944 370.849 345.676 373.174C344.408 375.499 339.458 377.697 339.458 377.697C339.458 377.697 348.382 375.897 345.211 377.165C342.04 378.433 339.023 379.304 339.023 379.304H336.557C336.557 379.304 328.13 375.076 331.301 375.71C334.473 376.345 336.164 377.402 336.164 377.402Z" fill="#92E3A9"/>
<path d="M446.137 377.769C446.137 377.769 439.359 370.746 441.261 370.957C443.163 371.168 446.724 376.42 446.724 376.42C446.724 376.42 446.773 364.843 448.464 367.38C450.155 369.917 448.077 376.469 448.077 376.469C448.077 376.469 452.911 368.927 452.901 370.159C452.868 373.97 449.176 376.95 449.176 376.95C449.176 376.95 456.917 371.216 455.649 373.541C454.381 375.866 449.431 378.064 449.431 378.064C449.431 378.064 458.355 376.264 455.184 377.532C452.013 378.8 448.996 379.671 448.996 379.671H446.53C446.53 379.671 438.103 375.443 441.274 376.077C444.445 376.711 446.137 377.769 446.137 377.769Z" fill="#92E3A9"/>
<path d="M650.603 355.8C650.603 355.8 640.283 345.107 643.179 345.429C646.076 345.751 651.497 353.747 651.497 353.747C651.497 353.747 651.572 336.12 654.147 339.983C656.722 343.845 653.558 353.821 653.558 353.821C653.558 353.821 660.919 342.339 660.902 344.214C660.851 350.016 655.231 354.554 655.231 354.554C655.231 354.554 667.017 345.823 665.086 349.364C663.155 352.904 655.619 356.25 655.619 356.25C655.619 356.25 669.206 353.509 664.378 355.44C659.55 357.371 654.956 358.697 654.956 358.697H651.202C651.202 358.697 638.372 352.26 643.2 353.226C648.029 354.191 650.603 355.8 650.603 355.8Z" fill="#92E3A9"/>
<path d="M35.6719 355.8C35.6719 355.8 25.3519 345.107 28.2489 345.429C31.1459 345.751 36.5669 353.747 36.5669 353.747C36.5669 353.747 36.6419 336.12 39.2169 339.983C41.7919 343.845 38.6279 353.821 38.6279 353.821C38.6279 353.821 45.9889 342.339 45.9719 344.214C45.9209 350.016 40.3009 354.554 40.3009 354.554C40.3009 354.554 52.0869 345.823 50.1559 349.364C48.2249 352.904 40.6889 356.25 40.6889 356.25C40.6889 356.25 54.2759 353.509 49.4479 355.44C44.6199 357.371 40.0259 358.697 40.0259 358.697H36.2719C36.2719 358.697 23.4419 352.26 28.2699 353.226C33.0969 354.191 35.6719 355.8 35.6719 355.8Z" fill="#92E3A9"/>
<path d="M86.5809 340.702C86.5809 340.702 76.0189 322.489 79.0319 321.083C82.0439 319.677 88.2699 333.535 88.2699 333.535C88.2699 333.535 87.0649 307.427 89.8769 309.837C92.6889 312.247 95.2999 330.723 95.2999 330.723C95.2999 330.723 100.923 310.64 102.731 314.857C104.539 319.074 101.286 331.836 101.286 331.836C101.286 331.836 109.358 316.464 110.162 321.485C110.965 326.506 106.346 334.74 106.346 334.74C106.346 334.74 116.99 324.096 117.793 328.313C118.596 332.53 114.981 336.748 114.981 336.748C114.981 336.748 129.039 329.116 125.625 333.334C122.211 337.551 117.19 342.974 117.19 342.974C117.19 342.974 130.646 338.154 129.039 340.966C127.432 343.778 121.407 346.79 121.407 346.79C121.407 346.79 132.453 344.782 131.248 346.589C130.043 348.396 127.238 350.171 127.238 350.171H77.2239C77.2239 350.171 63.9689 345.384 69.1909 344.982C74.4129 344.58 79.2319 346.789 79.2319 346.789C79.2319 346.789 62.9649 335.743 70.5959 334.94C78.2279 334.137 84.4529 343.776 84.4529 343.776C84.4529 343.776 73.6079 328.513 77.4239 330.923L86.5809 340.702Z" fill="#92E3A9"/>
<path d="M87.2609 345.883C87.2609 345.883 73.6249 331.754 77.4519 332.18C81.2789 332.606 88.4419 343.17 88.4419 343.17C88.4419 343.17 88.5409 319.88 91.9429 324.983C95.3449 330.086 91.1649 343.267 91.1649 343.267C91.1649 343.267 100.891 328.095 100.869 330.573C100.802 338.239 93.3759 344.236 93.3759 344.236C93.3759 344.236 108.949 332.7 106.398 337.378C103.846 342.056 93.8889 346.477 93.8889 346.477C93.8889 346.477 111.842 342.856 105.463 345.407C99.0839 347.959 93.0139 349.711 93.0139 349.711H88.0539C88.0539 349.711 71.1019 341.206 77.4809 342.482C83.8589 343.757 87.2609 345.883 87.2609 345.883Z" fill="#263238" stroke="#263238" stroke-miterlimit="10"/>
<path d="M536.337 372.747C536.337 372.747 516.375 338.322 522.068 335.665C527.762 333.008 539.529 359.2 539.529 359.2C539.529 359.2 537.251 309.853 542.566 314.408C547.88 318.963 552.815 353.886 552.815 353.886C552.815 353.886 563.443 315.927 566.86 323.898C570.276 331.869 564.129 355.99 564.129 355.99C564.129 355.99 579.387 326.935 580.905 336.425C582.423 345.915 573.693 361.478 573.693 361.478C573.693 361.478 593.811 341.36 595.33 349.331C596.848 357.302 590.016 365.274 590.016 365.274C590.016 365.274 616.587 350.85 610.134 358.821C603.681 366.792 594.191 377.041 594.191 377.041C594.191 377.041 619.624 367.931 616.587 373.245C613.55 378.559 602.163 384.253 602.163 384.253C602.163 384.253 623.041 380.457 620.763 383.874C618.485 387.29 613.183 390.644 613.183 390.644H518.652C518.652 390.644 493.599 381.596 503.468 380.837C513.337 380.078 522.447 384.253 522.447 384.253C522.447 384.253 491.7 363.375 506.125 361.857C520.549 360.339 532.317 378.559 532.317 378.559C532.317 378.559 511.819 349.71 519.031 354.265L536.337 372.747Z" fill="#92E3A9"/>
<path d="M537.622 382.54C537.622 382.54 511.848 355.836 519.082 356.639C526.316 357.442 539.854 377.411 539.854 377.411C539.854 377.411 540.041 333.39 546.472 343.036C552.902 352.682 545.001 377.595 545.001 377.595C545.001 377.595 563.384 348.918 563.343 353.603C563.216 368.093 549.18 379.427 549.18 379.427C549.18 379.427 578.615 357.622 573.793 366.464C568.97 375.306 550.149 383.662 550.149 383.662C550.149 383.662 584.081 376.817 572.024 381.64C559.967 386.463 548.494 389.774 548.494 389.774H539.119C539.119 389.774 507.077 373.698 519.134 376.109C531.192 378.521 537.622 382.54 537.622 382.54Z" fill="#263238" stroke="#263238" stroke-miterlimit="10"/>
<path d="M120.981 341.734C120.981 341.734 123.023 339.888 124.774 339.888C126.525 339.888 131.874 342.459 131.874 342.459C131.874 342.459 134.014 345.755 134.208 345.953C134.403 346.151 137.028 347.272 137.223 347.733C137.418 348.195 137.807 349.711 137.807 349.711H121.468L118.453 341.8L120.981 341.734Z" fill="white" stroke="#263238" stroke-miterlimit="10"/>
<path d="M124.774 339.888L124.677 341.444C124.677 341.444 128.859 343.875 128.762 344.751C128.665 345.626 127.789 347.669 127.789 347.669L129.929 349.906H118.55L119.425 343.195C119.425 343.195 121.856 339.693 124.774 339.888Z" fill="#263238"/>
<path d="M99.682 340.763C99.682 340.763 107.852 328.509 109.699 328.314C111.547 328.12 115.437 329.676 116.896 332.204C118.355 334.733 119.716 339.693 119.814 339.985C119.911 340.277 120.3 340.471 122.537 344.07C124.774 347.668 124.677 349.711 124.677 349.711H93.068C93.068 349.711 93.749 346.501 94.916 344.654C96.083 342.807 98.806 342.125 98.806 342.125L99.682 340.763Z" fill="white" stroke="#263238" stroke-miterlimit="10"/>
<path d="M112.228 349.516C112.228 349.516 111.353 347.376 111.255 347.085C111.158 346.793 111.158 343.973 110.866 342.806C110.574 341.639 108.143 338.04 108.143 338.04L109.894 332.983L109.019 332.302L110.478 328.703L109.661 328.325C107.746 328.669 99.682 340.763 99.682 340.763L98.807 342.125C98.807 342.125 96.084 342.806 94.917 344.654C93.919 346.234 93.278 348.804 93.113 349.517L112.228 349.516Z" fill="#263238"/>
<path d="M435.973 344.782C435.973 344.782 437.254 343.625 438.351 343.625C439.449 343.625 442.803 345.237 442.803 345.237C442.803 345.237 444.145 347.304 444.267 347.428C444.389 347.552 446.036 348.255 446.157 348.544C446.279 348.833 446.523 349.784 446.523 349.784H436.278L434.388 344.824L435.973 344.782Z" fill="white" stroke="#263238" stroke-miterlimit="10"/>
<path d="M438.352 343.624L438.291 344.6C438.291 344.6 440.913 346.125 440.852 346.673C440.791 347.221 440.242 348.502 440.242 348.502L441.584 349.905H434.449L434.998 345.697C434.998 345.697 436.522 343.502 438.352 343.624Z" fill="#263238"/>
<path d="M422.619 344.173C422.619 344.173 427.741 336.489 428.9 336.368C430.059 336.246 432.498 337.222 433.413 338.807C434.328 340.392 435.181 343.502 435.242 343.685C435.303 343.868 435.547 343.99 436.949 346.246C438.352 348.502 438.291 349.783 438.291 349.783H418.472C418.472 349.783 418.899 347.771 419.631 346.612C420.363 345.453 422.07 345.026 422.07 345.026L422.619 344.173Z" fill="white" stroke="#263238" stroke-miterlimit="10"/>
<path d="M430.485 349.661C430.485 349.661 429.936 348.319 429.875 348.136C429.814 347.953 429.814 346.185 429.631 345.453C429.448 344.721 427.923 342.465 427.923 342.465L429.021 339.294L428.472 338.867L429.387 336.611L428.875 336.374C427.674 336.59 422.618 344.173 422.618 344.173L422.069 345.027C422.069 345.027 420.362 345.454 419.63 346.613C419.004 347.604 418.602 349.215 418.499 349.662H430.485V349.661Z" fill="#263238"/>
<path d="M601.357 374.697C601.357 374.697 605.217 371.208 608.526 371.208C611.835 371.208 621.945 376.068 621.945 376.068C621.945 376.068 625.989 382.298 626.357 382.672C626.725 383.046 631.688 385.164 632.056 386.036C632.424 386.908 633.159 389.774 633.159 389.774H602.276L596.577 374.821L601.357 374.697Z" fill="white" stroke="#263238" stroke-miterlimit="10"/>
<path d="M608.526 371.208L608.342 374.149C608.342 374.149 616.247 378.745 616.063 380.399C615.879 382.053 614.225 385.914 614.225 385.914L618.269 390.142H596.761L598.415 377.458C598.415 377.458 603.011 370.84 608.526 371.208Z" fill="#263238"/>
<path d="M561.099 372.862C561.099 372.862 576.54 349.7 580.033 349.332C583.526 348.964 590.879 351.906 593.636 356.685C596.393 361.464 598.967 370.84 599.151 371.391C599.335 371.943 600.07 372.31 604.298 379.112C608.526 385.914 608.342 389.774 608.342 389.774H548.599C548.599 389.774 549.886 383.708 552.092 380.215C554.298 376.722 559.445 375.435 559.445 375.435L561.099 372.862Z" fill="white" stroke="#263238" stroke-miterlimit="10"/>
<path d="M584.812 389.406C584.812 389.406 583.158 385.362 582.974 384.81C582.79 384.258 582.79 378.927 582.239 376.722C581.688 374.516 577.092 367.714 577.092 367.714L580.401 358.155L578.747 356.868L581.504 350.066L579.96 349.351C576.34 350.001 561.099 372.861 561.099 372.861L559.445 375.435C559.445 375.435 554.298 376.722 552.092 380.215C550.206 383.202 548.995 388.058 548.682 389.406H584.812Z" fill="#263238"/>
</svg>
