<svg width="151" height="32" viewBox="0 0 151 32" fill="none" xmlns="http://www.w3.org/2000/svg">
<path d="M16.5661 6.70577C18.6079 6.70577 19.2681 7.13621 20.4769 7.91807C23.4906 9.86728 24.9009 13.7943 23.9072 17.4666C23.8691 17.6028 23.8296 17.739 23.7901 17.8752C22.7011 21.4944 19.2668 24.0225 15.4199 24.0225H6.7013V15.8797C7.18454 9.36738 10.0554 6.70577 16.5661 6.70577ZM16.5661 0C11.2315 0 0.931077 1.49017 0 15.6468V30.7338H15.4199C22.2138 30.7338 28.2631 26.315 30.2096 19.8013C30.2668 19.6106 30.3226 19.4158 30.3757 19.2183C32.1099 12.8081 29.6883 5.89394 24.1141 2.28702C22.2124 1.05565 20.289 0 16.5661 0Z" fill="#40D98C"/>
<path d="M39.515 9.77057C36.2671 9.77057 33.6535 10.6832 31.7261 12.4948C28.8512 15.1946 28.6592 18.8451 28.6633 19.8326C28.3911 23.144 29.7781 29.516 37.0634 31.0511C37.8196 31.2127 38.5906 31.2949 39.3639 31.2963C46.8397 31.2963 50.9139 23.3319 51.099 22.9601L46.4422 20.6199C46.4123 20.6785 43.6163 26.0685 39.2563 26.0685C38.8803 26.0682 38.5053 26.0289 38.1374 25.9513C37.4404 25.8144 36.7726 25.5572 36.1636 25.1913L48.9333 17.7704L48.2622 15.7571C47.6741 13.9864 45.6759 10.7785 41.8889 9.93811L41.6004 9.89044C40.9077 9.81529 40.2117 9.77665 39.515 9.77466V9.77057ZM33.8468 20.5014C33.8468 20.3775 33.8564 20.2753 33.8632 20.2031L33.885 20.0669L33.8754 19.8503C33.8754 19.8285 33.8455 17.6328 35.3224 16.2747C36.2508 15.4221 37.6555 14.9916 39.5095 14.9916C39.9424 14.9916 40.4011 15.0161 40.883 15.0624C41.3341 15.185 41.7524 15.406 42.1081 15.7095L33.8482 20.5082L33.8468 20.5014Z" fill="#40D98C"/>
<path d="M60.2356 9.77057C56.9877 9.77057 54.3728 10.6832 52.4453 12.4948C49.5718 15.1946 49.3798 18.8451 49.3825 19.8326C49.1103 23.144 50.4974 29.516 57.7826 31.0511C58.5393 31.2128 59.3108 31.2949 60.0845 31.2963C67.559 31.2963 71.6331 23.3319 71.8196 22.9601L67.1615 20.6199C67.1315 20.6785 64.3383 26.0685 59.9783 26.0685C59.6013 26.0677 59.2255 26.028 58.8567 25.95C58.1597 25.813 57.4918 25.5558 56.8829 25.1899L69.6525 17.769L68.9828 15.7558C68.3934 13.985 66.3965 10.7772 62.6082 9.93675L62.321 9.88907C61.6283 9.81398 60.9323 9.77533 60.2356 9.77329V9.77057ZM54.5661 20.5014C54.5661 20.3775 54.577 20.2753 54.5824 20.2031L54.6056 20.0669L54.596 19.8503C54.596 19.8285 54.5647 17.6328 56.043 16.2747C56.9714 15.4221 58.3748 14.9916 60.2288 14.9916C60.663 14.9916 61.1204 15.0161 61.6022 15.0624C62.0534 15.1847 62.4719 15.4057 62.8273 15.7095L54.5674 20.5082L54.5661 20.5014Z" fill="#40D98C"/>
<path d="M87.5297 30.1754H73.5703V10.9897H77.6649V26.0767H87.5297V30.1754Z" fill="white"/>
<path d="M98.008 15.8008C97.2173 15.5466 96.3872 15.4377 95.5578 15.4793C90.6574 15.6741 88.6809 17.3237 88.6809 17.3237L90.1701 20.304C90.1701 20.304 93.1484 18.0688 95.7511 18.8138C98.3537 19.5589 97.6119 21.4223 97.6119 21.4223L94.1353 21.1308C92.963 21.0196 91.7828 21.2336 90.7241 21.7492C89.5153 22.3527 88.3052 23.471 88.3052 25.5196C88.3052 29.6169 92.3997 29.9901 92.3997 29.9901C92.3997 29.9901 96.8673 30.7352 97.9808 28.5V30.362H101.702V21.0477C101.702 21.0477 102.014 17.1248 98.008 15.8008ZM95.5741 27.1964C93.5323 27.5683 92.6883 27.0098 92.3643 26.3573C92.0036 25.6354 92.3276 24.7487 93.0313 24.3577C94.0849 23.471 97.8079 23.8428 97.8079 23.8428C97.8038 26.8218 95.57 27.195 95.57 27.195L95.5741 27.1964Z" fill="white"/>
<path d="M118.256 21.0476V29.9886H114.533V21.606C114.533 21.606 114.72 18.6257 110.994 18.6257C108.556 18.6257 107.953 21.3758 107.83 23.2678C107.792 23.842 107.792 24.4181 107.83 24.9923C107.831 25.0036 107.831 25.015 107.83 25.0263V29.9886H103.737V15.4601H107.833V16.5811C109.417 15.6865 111.235 15.2955 113.045 15.4601C116.767 15.832 117.512 18.0672 117.512 18.0672C117.512 18.0672 118.256 18.8123 118.256 21.0476Z" fill="white"/>
<path d="M131.301 20.8611L134.279 18.9991C134.279 18.9991 132.79 14.5286 125.716 15.6469C118.641 16.7652 120.135 24.5865 120.135 24.5865C120.135 24.5865 120.879 30.1713 127.58 30.1713C130.559 30.1713 133.161 29.053 134.282 26.4458L131.303 24.9557C131.303 24.9557 130.168 27.1473 127.207 26.8177C123.857 26.4458 123.857 23.0923 123.857 23.0923C123.857 23.0923 123.484 19.7401 126.836 18.995C130.187 18.2499 131.301 20.8611 131.301 20.8611Z" fill="white"/>
<path d="M142.928 27.0082C138.834 26.2631 139.205 24.0279 139.205 24.0279H150.007C150.007 24.0279 150.007 23.3278 149.822 21.5624C149.541 18.8763 147.644 16.6029 145.03 15.9477C144.83 15.8959 144.628 15.8573 144.423 15.8319C144.423 15.8319 139.211 14.715 136.605 18.0672C134 21.4194 135.488 25.5181 135.488 25.5181C135.488 25.5181 136.605 29.9886 142.189 30.3604C147.773 30.7323 149.268 27.3801 149.268 27.3801L147.034 25.1448C147.034 25.1448 145.532 27.3787 142.928 27.0082ZM142.184 18.4404C145.534 18.4404 146.278 21.4208 146.278 21.4208H138.834C138.834 21.4208 139.949 18.4404 142.182 18.4404H142.184Z" fill="white"/>
</svg>
