<svg width="33" height="14" viewBox="0 0 33 14" fill="none" xmlns="http://www.w3.org/2000/svg">
<path d="M7.61186 2.99974C8.55006 2.99974 8.8534 3.19229 9.40881 3.54204C10.7936 4.414 11.4416 6.1707 10.985 7.81346C10.9675 7.87439 10.9493 7.93532 10.9312 7.99626C10.4308 9.61525 8.85278 10.7462 7.08523 10.7462H3.07915V7.10359C3.30118 4.19037 4.62028 2.99974 7.61186 2.99974ZM7.61186 0C5.16068 0 0.427816 0.666609 0 6.99939V13.7483H7.08523C10.2069 13.7483 12.9865 11.7717 13.8809 8.85785C13.9071 8.77254 13.9328 8.68541 13.9572 8.59706C14.754 5.72954 13.6413 2.63658 11.08 1.02307C10.2063 0.472232 9.3225 0 7.61186 0Z" fill="#40D98C"/>
<path d="M18.1565 4.37074C16.6642 4.37074 15.4633 4.77899 14.5776 5.5894C13.2567 6.79709 13.1685 8.4301 13.1703 8.87187C13.0453 10.3532 13.6826 13.2036 17.0301 13.8903C17.3775 13.9626 17.7318 13.9993 18.0871 14C21.5221 14 23.3941 10.4372 23.4792 10.2709L21.3395 9.22406C21.3257 9.25026 20.041 11.6614 18.0377 11.6614C17.8649 11.6613 17.6926 11.6437 17.5236 11.609C17.2033 11.5477 16.8964 11.4327 16.6166 11.269L22.4841 7.94934L22.1757 7.04875C21.9055 6.25662 20.9874 4.82164 19.2473 4.44568L19.1147 4.42436C18.7965 4.39074 18.4766 4.37345 18.1565 4.37256V4.37074ZM15.5521 9.17105C15.5521 9.1156 15.5565 9.0699 15.5596 9.0376L15.5696 8.97667L15.5652 8.87979C15.5652 8.87004 15.5515 7.8878 16.2301 7.28029C16.6567 6.89885 17.3021 6.7063 18.154 6.7063C18.3529 6.7063 18.5637 6.71727 18.7851 6.73799C18.9924 6.79282 19.1846 6.89166 19.348 7.02742L15.5527 9.17409L15.5521 9.17105Z" fill="#40D98C"/>
<path d="M27.6773 4.37074C26.185 4.37074 24.9835 4.77899 24.0978 5.5894C22.7775 6.79709 22.6893 8.4301 22.6905 8.87187C22.5654 10.3532 23.2028 13.2036 26.5502 13.8903C26.8979 13.9626 27.2524 13.9994 27.6079 14C31.0423 14 32.9143 10.4372 33 10.2709L30.8597 9.22406C30.8459 9.25026 29.5625 11.6614 27.5591 11.6614C27.3859 11.661 27.2132 11.6433 27.0437 11.6084C26.7235 11.5471 26.4166 11.4321 26.1368 11.2684L32.0043 7.94873L31.6965 7.04814C31.4257 6.25601 30.5082 4.82103 28.7675 4.44507L28.6355 4.42375C28.3173 4.39015 27.9974 4.37286 27.6773 4.37195V4.37074ZM25.0723 9.17105C25.0723 9.1156 25.0773 9.0699 25.0798 9.0376L25.0904 8.97667L25.086 8.87979C25.086 8.87004 25.0717 7.8878 25.7509 7.28029C26.1775 6.89885 26.8223 6.7063 27.6742 6.7063C27.8737 6.7063 28.0839 6.71727 28.3053 6.73799C28.5126 6.79269 28.7049 6.89155 28.8682 7.02742L25.0729 9.17409L25.0723 9.17105Z" fill="#40D98C"/>
</svg>
