<svg width="35" height="35" viewBox="0 0 35 35" fill="none" xmlns="http://www.w3.org/2000/svg">
<g clip-path="url(#clip0_1585_12027)">
<path fill-rule="evenodd" clip-rule="evenodd" d="M9.50313 2.89618C11.627 1.06472 14.3359 0.0532279 17.1404 0.0444336C22.8566 0.0444336 27.6018 4.29443 28.1181 9.77481C31.5011 10.2529 34.1404 13.0856 34.1404 16.5621C34.1404 20.3786 30.9571 23.4194 27.1003 23.4194H21.3904C21.1086 23.4194 20.8383 23.3075 20.6391 23.1082C20.4398 22.909 20.3279 22.6387 20.3279 22.3569C20.3279 22.0751 20.4398 21.8049 20.6391 21.6056C20.8383 21.4064 21.1086 21.2944 21.3904 21.2944H27.1024C29.8458 21.2944 32.0154 19.1439 32.0154 16.5621C32.0154 13.9781 29.8479 11.8276 27.1003 11.8276H26.0378V10.7651C26.0399 6.04756 22.0874 2.16943 17.1404 2.16943C14.8451 2.1786 12.6287 3.0076 10.8908 4.50693C9.28213 5.89243 8.44063 7.56268 8.44063 8.87381V9.82581L7.49501 9.92993C4.52638 10.2551 2.26538 12.6924 2.26538 15.5952C2.26538 18.7126 4.87913 21.2944 8.17501 21.2944H12.8904C13.1722 21.2944 13.4424 21.4064 13.6417 21.6056C13.8409 21.8049 13.9529 22.0751 13.9529 22.3569C13.9529 22.6387 13.8409 22.909 13.6417 23.1082C13.4424 23.3075 13.1722 23.4194 12.8904 23.4194H8.17501C3.76988 23.4194 0.140381 19.9472 0.140381 15.5952C0.140381 11.8488 2.83063 8.74631 6.39213 7.96006C6.69601 6.12618 7.87538 4.29868 9.50313 2.89618Z" fill="#8C979A"/>
<path fill-rule="evenodd" clip-rule="evenodd" d="M16.3885 8.85463C16.4872 8.75568 16.6044 8.67718 16.7335 8.62362C16.8626 8.57005 17.001 8.54248 17.1407 8.54248C17.2805 8.54248 17.4189 8.57005 17.548 8.62362C17.6771 8.67718 17.7943 8.75568 17.893 8.85463L24.268 15.2296C24.4675 15.4291 24.5796 15.6997 24.5796 15.9819C24.5796 16.264 24.4675 16.5346 24.268 16.7341C24.0685 16.9336 23.7979 17.0457 23.5157 17.0457C23.2336 17.0457 22.963 16.9336 22.7635 16.7341L18.2032 12.1718V30.8569C18.2032 31.1387 18.0913 31.4089 17.892 31.6082C17.6928 31.8074 17.4225 31.9194 17.1407 31.9194C16.859 31.9194 16.5887 31.8074 16.3894 31.6082C16.1902 31.4089 16.0782 31.1387 16.0782 30.8569V12.1718L11.518 16.7341C11.3185 16.9336 11.0479 17.0457 10.7657 17.0457C10.4836 17.0457 10.213 16.9336 10.0135 16.7341C9.81399 16.5346 9.7019 16.264 9.7019 15.9819C9.7019 15.6997 9.81399 15.4291 10.0135 15.2296L16.3885 8.85463Z" fill="#8C979A"/>
</g>
<defs>
<clipPath id="clip0_1585_12027">
<rect width="34" height="34" fill="white" transform="translate(0.140381 0.0444336)"/>
</clipPath>
</defs>
</svg>
