<?xml version="1.0" encoding="UTF-8"?>
<svg viewBox="0 0 100 100" xmlns="http://www.w3.org/2000/svg">
 <defs>
  <pattern id="a" width="100" height="100" patternUnits="userSpaceOnUse">
   <path d="m9 5a4 4 0 1 0 -8 0 4 4 0 1 0 8 0"/>
   <path d="m19 5a4 4 0 1 0 -8 0 4 4 0 1 0 8 0"/>
   <path d="m29 5a4 4 0 1 0 -8 0 4 4 0 1 0 8 0"/>
   <path d="m39 5a4 4 0 1 0 -8 0 4 4 0 1 0 8 0"/>
   <path d="m49 5a4 4 0 1 0 -8 0 4 4 0 1 0 8 0"/>
   <path d="m59 5a4 4 0 1 0 -8 0 4 4 0 1 0 8 0"/>
   <path d="m69 5a4 4 0 1 0 -8 0 4 4 0 1 0 8 0"/>
   <path d="m79 5a4 4 0 1 0 -8 0 4 4 0 1 0 8 0"/>
   <path d="m89 5a4 4 0 1 0 -8 0 4 4 0 1 0 8 0"/>
   <path d="m99 5a4 4 0 1 0 -8 0 4 4 0 1 0 8 0"/>
   <path d="m9 15a4 4 0 1 0 -8 0 4 4 0 1 0 8 0"/>
   <path d="m19 15a4 4 0 1 0 -8 0 4 4 0 1 0 8 0"/>
   <path d="m29 15a4 4 0 1 0 -8 0 4 4 0 1 0 8 0"/>
   <path d="m39 15a4 4 0 1 0 -8 0 4 4 0 1 0 8 0"/>
   <path d="m49 15a4 4 0 1 0 -8 0 4 4 0 1 0 8 0"/>
   <path d="m59 15a4 4 0 1 0 -8 0 4 4 0 1 0 8 0"/>
   <path d="m69 15a4 4 0 1 0 -8 0 4 4 0 1 0 8 0"/>
   <path d="m79 15a4 4 0 1 0 -8 0 4 4 0 1 0 8 0"/>
   <path d="m89 15a4 4 0 1 0 -8 0 4 4 0 1 0 8 0"/>
   <path d="m99 15a4 4 0 1 0 -8 0 4 4 0 1 0 8 0"/>
   <path d="m9 25a4 4 0 1 0 -8 0 4 4 0 1 0 8 0"/>
   <path d="m19 25a4 4 0 1 0 -8 0 4 4 0 1 0 8 0"/>
   <path d="m29 25a4 4 0 1 0 -8 0 4 4 0 1 0 8 0"/>
   <path d="m39 25a4 4 0 1 0 -8 0 4 4 0 1 0 8 0"/>
   <path d="m49 25a4 4 0 1 0 -8 0 4 4 0 1 0 8 0"/>
   <path d="m59 25a4 4 0 1 0 -8 0 4 4 0 1 0 8 0"/>
   <path d="m69 25a4 4 0 1 0 -8 0 4 4 0 1 0 8 0"/>
   <path d="m79 25a4 4 0 1 0 -8 0 4 4 0 1 0 8 0"/>
   <path d="m89 25a4 4 0 1 0 -8 0 4 4 0 1 0 8 0"/>
   <path d="m99 25a4 4 0 1 0 -8 0 4 4 0 1 0 8 0"/>
   <path d="m9 35a4 4 0 1 0 -8 0 4 4 0 1 0 8 0"/>
   <path d="m19 35a4 4 0 1 0 -8 0 4 4 0 1 0 8 0"/>
   <path d="m29 35a4 4 0 1 0 -8 0 4 4 0 1 0 8 0"/>
   <path d="m39 35a4 4 0 1 0 -8 0 4 4 0 1 0 8 0"/>
   <path d="m49 35a4 4 0 1 0 -8 0 4 4 0 1 0 8 0"/>
   <path d="m59 35a4 4 0 1 0 -8 0 4 4 0 1 0 8 0"/>
   <path d="m69 35a4 4 0 1 0 -8 0 4 4 0 1 0 8 0"/>
   <path d="m79 35a4 4 0 1 0 -8 0 4 4 0 1 0 8 0"/>
   <path d="m89 35a4 4 0 1 0 -8 0 4 4 0 1 0 8 0"/>
   <path d="m99 35a4 4 0 1 0 -8 0 4 4 0 1 0 8 0"/>
   <path d="m9 45a4 4 0 1 0 -8 0 4 4 0 1 0 8 0"/>
   <path d="m19 45a4 4 0 1 0 -8 0 4 4 0 1 0 8 0"/>
   <path d="m29 45a4 4 0 1 0 -8 0 4 4 0 1 0 8 0"/>
   <path d="m39 45a4 4 0 1 0 -8 0 4 4 0 1 0 8 0"/>
   <path d="m49 45a4 4 0 1 0 -8 0 4 4 0 1 0 8 0"/>
   <path d="m59 45a4 4 0 1 0 -8 0 4 4 0 1 0 8 0"/>
   <path d="m69 45a4 4 0 1 0 -8 0 4 4 0 1 0 8 0"/>
   <path d="m79 45a4 4 0 1 0 -8 0 4 4 0 1 0 8 0"/>
   <path d="m89 45a4 4 0 1 0 -8 0 4 4 0 1 0 8 0"/>
   <path d="m99 45a4 4 0 1 0 -8 0 4 4 0 1 0 8 0"/>
   <path d="m9 55a4 4 0 1 0 -8 0 4 4 0 1 0 8 0"/>
   <path d="m19 55a4 4 0 1 0 -8 0 4 4 0 1 0 8 0"/>
   <path d="m29 55a4 4 0 1 0 -8 0 4 4 0 1 0 8 0"/>
   <path d="m39 55a4 4 0 1 0 -8 0 4 4 0 1 0 8 0"/>
   <path d="m49 55a4 4 0 1 0 -8 0 4 4 0 1 0 8 0"/>
   <path d="m59 55a4 4 0 1 0 -8 0 4 4 0 1 0 8 0"/>
   <path d="m69 55a4 4 0 1 0 -8 0 4 4 0 1 0 8 0"/>
   <path d="m79 55a4 4 0 1 0 -8 0 4 4 0 1 0 8 0"/>
   <path d="m89 55a4 4 0 1 0 -8 0 4 4 0 1 0 8 0"/>
   <path d="m99 55a4 4 0 1 0 -8 0 4 4 0 1 0 8 0"/>
   <path d="m9 65a4 4 0 1 0 -8 0 4 4 0 1 0 8 0"/>
   <path d="m19 65a4 4 0 1 0 -8 0 4 4 0 1 0 8 0"/>
   <path d="m29 65a4 4 0 1 0 -8 0 4 4 0 1 0 8 0"/>
   <path d="m39 65a4 4 0 1 0 -8 0 4 4 0 1 0 8 0"/>
   <path d="m49 65a4 4 0 1 0 -8 0 4 4 0 1 0 8 0"/>
   <path d="m59 65a4 4 0 1 0 -8 0 4 4 0 1 0 8 0"/>
   <path d="m69 65a4 4 0 1 0 -8 0 4 4 0 1 0 8 0"/>
   <path d="m79 65a4 4 0 1 0 -8 0 4 4 0 1 0 8 0"/>
   <path d="m89 65a4 4 0 1 0 -8 0 4 4 0 1 0 8 0"/>
   <path d="m99 65a4 4 0 1 0 -8 0 4 4 0 1 0 8 0"/>
   <path d="m9 75a4 4 0 1 0 -8 0 4 4 0 1 0 8 0"/>
   <path d="m19 75a4 4 0 1 0 -8 0 4 4 0 1 0 8 0"/>
   <path d="m29 75a4 4 0 1 0 -8 0 4 4 0 1 0 8 0"/>
   <path d="m39 75a4 4 0 1 0 -8 0 4 4 0 1 0 8 0"/>
   <path d="m49 75a4 4 0 1 0 -8 0 4 4 0 1 0 8 0"/>
   <path d="m59 75a4 4 0 1 0 -8 0 4 4 0 1 0 8 0"/>
   <path d="m69 75a4 4 0 1 0 -8 0 4 4 0 1 0 8 0"/>
   <path d="m79 75a4 4 0 1 0 -8 0 4 4 0 1 0 8 0"/>
   <path d="m89 75a4 4 0 1 0 -8 0 4 4 0 1 0 8 0"/>
   <path d="m99 75a4 4 0 1 0 -8 0 4 4 0 1 0 8 0"/>
   <path d="m9 85a4 4 0 1 0 -8 0 4 4 0 1 0 8 0"/>
   <path d="m19 85a4 4 0 1 0 -8 0 4 4 0 1 0 8 0"/>
   <path d="m29 85a4 4 0 1 0 -8 0 4 4 0 1 0 8 0"/>
   <path d="m39 85a4 4 0 1 0 -8 0 4 4 0 1 0 8 0"/>
   <path d="m49 85a4 4 0 1 0 -8 0 4 4 0 1 0 8 0"/>
   <path d="m59 85a4 4 0 1 0 -8 0 4 4 0 1 0 8 0"/>
   <path d="m69 85a4 4 0 1 0 -8 0 4 4 0 1 0 8 0"/>
   <path d="m79 85a4 4 0 1 0 -8 0 4 4 0 1 0 8 0"/>
   <path d="m89 85a4 4 0 1 0 -8 0 4 4 0 1 0 8 0"/>
   <path d="m99 85a4 4 0 1 0 -8 0 4 4 0 1 0 8 0"/>
   <path d="m9 95a4 4 0 1 0 -8 0 4 4 0 1 0 8 0"/>
   <path d="m19 95a4 4 0 1 0 -8 0 4 4 0 1 0 8 0"/>
   <path d="m29 95a4 4 0 1 0 -8 0 4 4 0 1 0 8 0"/>
   <path d="m39 95a4 4 0 1 0 -8 0 4 4 0 1 0 8 0"/>
   <path d="m49 95a4 4 0 1 0 -8 0 4 4 0 1 0 8 0"/>
   <path d="m59 95a4 4 0 1 0 -8 0 4 4 0 1 0 8 0"/>
   <path d="m69 95a4 4 0 1 0 -8 0 4 4 0 1 0 8 0"/>
   <path d="m79 95a4 4 0 1 0 -8 0 4 4 0 1 0 8 0"/>
   <path d="m89 95a4 4 0 1 0 -8 0 4 4 0 1 0 8 0"/>
   <path d="m99 95a4 4 0 1 0 -8 0 4 4 0 1 0 8 0"/>
  </pattern>
 </defs>
 <path d="m0 0h100v100h-100z" fill="url(#a)"/>
</svg>
